<?xml version="1.0" encoding="UTF-8" standalone="no"?>
<!-- Created with Inkscape (http://www.inkscape.org/) -->

<svg
   xmlns:dc="http://purl.org/dc/elements/1.1/"
   xmlns:cc="http://creativecommons.org/ns#"
   xmlns:rdf="http://www.w3.org/1999/02/22-rdf-syntax-ns#"
   xmlns:svg="http://www.w3.org/2000/svg"
   xmlns="http://www.w3.org/2000/svg"
   xmlns:sodipodi="http://sodipodi.sourceforge.net/DTD/sodipodi-0.dtd"
   xmlns:inkscape="http://www.inkscape.org/namespaces/inkscape"
   width="40"
   height="360"
   viewBox="0 0 10.583333 95.250002"
   version="1.1"
   id="svg8"
   inkscape:version="0.92.5 (2060ec1f9f, 2020-04-08)"
   sodipodi:docname="drawing.svg">
  <defs
     id="defs2">
    <style
       id="style843">.cls-1{fill:#0069ff;}</style>
  </defs>
  <sodipodi:namedview
     id="base"
     pagecolor="#ffffff"
     bordercolor="#666666"
     borderopacity="1.0"
     inkscape:pageopacity="0.0"
     inkscape:pageshadow="2"
     inkscape:zoom="2.8"
     inkscape:cx="39.555143"
     inkscape:cy="235.43561"
     inkscape:document-units="mm"
     inkscape:current-layer="layer1"
     showgrid="false"
     units="px"
     inkscape:window-width="1848"
     inkscape:window-height="1016"
     inkscape:window-x="72"
     inkscape:window-y="27"
     inkscape:window-maximized="1" />
  <metadata
     id="metadata5">
    <rdf:RDF>
      <cc:Work
         rdf:about="">
        <dc:format>image/svg+xml</dc:format>
        <dc:type
           rdf:resource="http://purl.org/dc/dcmitype/StillImage" />
        <dc:title></dc:title>
      </cc:Work>
    </rdf:RDF>
  </metadata>
  <g
     inkscape:label="Layer 1"
     inkscape:groupmode="layer"
     id="layer1"
     transform="translate(0,-201.74999)">
    <g
       id="g819"
       transform="matrix(0.27033013,0,0,0.27033013,-0.72239746,285.59205)"
       style="fill:none;fill-rule:evenodd;stroke:#0069ff;stroke-width:2">
      <path
         id="path815"
         d="M 22.6,41.2 C 14.2,41.2 7,34.3 7,25.8 7,12.9 22.6,4.2 22.6,4.2 c 0,0 15.6,9 15.6,21.7 0,8.4 -7.1,15.3 -15.6,15.3 z"
         inkscape:connector-curvature="0" />
      <path
         id="path817"
         d="m 22.6,30.8 c -2.9,0 -5.2,-2.3 -5.2,-5.2 0,-4 5.2,-7.8 5.2,-7.8 0,0 5.2,3.7 5.2,7.8 0,2.9 -2.3,5.2 -5.2,5.2 z"
         inkscape:connector-curvature="0" />
    </g>
    <path
       id="path832"
       d="m 9.1632219,281.4802 c 0,2.14624 -1.7397394,3.88598 -3.8859768,3.88598 -2.1462363,0 -3.8859768,-1.73974 -3.8859768,-3.88598 0,-2.14624 1.7397405,-3.88625 3.8859768,-3.88625 2.1462374,0 3.8859768,1.74001 3.8859768,3.88625 z m -2.4831862,0.008 c 0,0.76663 -0.6216051,1.38851 -1.3885039,1.38851 -0.7668986,0 -1.3885038,-0.62188 -1.3885038,-1.38851 0,-0.76689 0.6216052,-1.3885 1.3885038,-1.3885 0.7668988,0 1.3885039,0.62161 1.3885039,1.3885 z m -1.3890428,-1.4265 v -3.88812 z m -4.1552675,-1.95727 3.0244634,2.4627 z m 8.311344,0 -3.0241944,2.4627 z m 1.0785096,4.52726 -3.8034919,-0.83429 z m -10.46782432,0 3.80349192,-0.83429 z M 7.659347,286.3 5.9328154,282.70326 Z m -4.7329345,0 1.699306,-3.59674 z"
       inkscape:connector-curvature="0"
       style="fill:none;stroke:#0069ff;stroke-width:0.53912002" />
    <g
       id="Group"
       transform="matrix(0.28955262,0,0,0.28955262,-0.57892012,264.93019)">
      <g
         data-name="Group 2"
         id="Group_2">
        <path
           d="M 28.91,14.88 A 0.86,0.86 0 0 1 28.05,14.02 V 6.71 H 23.31 L 21,12.32 A 0.86,0.86 0 0 1 19.42,11.66 L 22,5.53 A 0.86,0.86 0 0 1 22.74,5 h 6.17 a 0.86,0.86 0 0 1 0.86,0.86 V 14 a 0.86,0.86 0 0 1 -0.86,0.88 z"
           class="cls-1"
           id="Vector"
           inkscape:connector-curvature="0"
           style="fill:#0069ff" />
      </g>
      <g
         data-name="Group 3"
         id="Group_3">
        <path
           d="M 5.17,19.85 A 0.84,0.84 0 0 1 4.34,19.18 l -2,-9 A 0.83,0.83 0 0 1 2.64,9.32 0.86,0.86 0 0 1 3.55,9.23 l 7.85,4 a 0.86,0.86 0 1 1 -0.77,1.53 L 4.4,11.61 6,18.81 a 0.86,0.86 0 0 1 -0.65,1 0.55,0.55 0 0 1 -0.18,0.04 z"
           class="cls-1"
           data-name="Vector 2"
           id="Vector_2"
           inkscape:connector-curvature="0"
           style="fill:#0069ff" />
      </g>
      <g
         data-name="Group 4"
         id="Group_4">
        <path
           d="M 3.16,34 A 0.82,0.82 0 0 1 2.64,33.82 0.84,0.84 0 0 1 2.33,33 l 2.21,-9.52 a 0.86,0.86 0 1 1 1.67,0.39 l -1.78,7.7 6.49,-3.42 a 0.86,0.86 0 1 1 0.8,1.52 L 3.56,33.9 A 0.91,0.91 0 0 1 3.16,34 Z"
           class="cls-1"
           data-name="Vector 3"
           id="Vector_3"
           inkscape:connector-curvature="0"
           style="fill:#0069ff" />
      </g>
      <g
         data-name="Group 5"
         id="Group_5">
        <path
           d="M 28.75,30.91 H 15.19 A 5.49,5.49 0 0 1 11.88,29.8 l -9.57,-8 A 0.83,0.83 0 0 1 2,21.12 0.88,0.88 0 0 1 2.29,20.47 L 11.7,12.3 a 5.53,5.53 0 0 1 3.49,-1.13 H 28.6 a 10.05,10.05 0 0 1 9.95,10 9.81,9.81 0 0 1 -9.8,9.74 z M 4.17,21.1 13,28.47 a 3.73,3.73 0 0 0 2.22,0.72 h 13.52 a 8.09,8.09 0 0 0 8.08,-8.08 8.34,8.34 0 0 0 -8.26,-8.24 H 15.18 a 3.85,3.85 0 0 0 -2.39,0.74 z"
           class="cls-1"
           data-name="Vector 4"
           id="Vector_4"
           inkscape:connector-curvature="0"
           style="fill:#0069ff" />
      </g>
      <g
         data-name="Group 6"
         id="Group_6">
        <path
           d="m 29.76,12.79 h -1.71 v 16.8 h 1.71 z"
           class="cls-1"
           data-name="Vector 5"
           id="Vector_5"
           inkscape:connector-curvature="0"
           style="fill:#0069ff" />
      </g>
      <g
         data-name="Group 7"
         id="Group_7">
        <path
           d="m 13.49,24.59 a 0.84,0.84 0 0 1 -0.62,-0.27 0.86,0.86 0 0 1 0,-1.21 l 2.13,-2 -1.84,-1.84 A 0.88748239,0.88748239 0 0 1 14.4,18 l 2.47,2.47 a 0.89,0.89 0 0 1 0.25,0.62 0.84,0.84 0 0 1 -0.27,0.61 l -2.77,2.62 a 0.89,0.89 0 0 1 -0.59,0.27 z"
           class="cls-1"
           data-name="Vector 6"
           id="Vector_6"
           inkscape:connector-curvature="0"
           style="fill:#0069ff" />
      </g>
      <g
         data-name="Group 8"
         id="Group_8">
        <path
           d="M 22.89,24.59 H 20 a 0.86,0.86 0 0 1 0,-1.72 h 2.93 a 0.86,0.86 0 0 1 0,1.72 z"
           class="cls-1"
           data-name="Vector 7"
           id="Vector_7"
           inkscape:connector-curvature="0"
           style="fill:#0069ff" />
      </g>
    </g>
    <g
       id="g895"
       transform="matrix(0.26458333,0,0,0.26458333,-0.66145831,254.26978)">
      <ellipse
         id="ellipse885"
         ry="7"
         rx="13"
         cy="9.5"
         cx="22.5"
         class="st0"
         style="fill:none;stroke:#0065ff;stroke-width:2" />
      <path
         id="path887"
         d="m 9.5,9.5 v 8.1 c 0,3.8 5.8,6.9 13,6.9 7.2,0 13,-3.1 13,-6.9 V 9.5"
         class="st0"
         inkscape:connector-curvature="0"
         style="fill:none;stroke:#0065ff;stroke-width:2" />
      <path
         id="path889"
         d="m 35.5,9.5 v 8.1 c 0,3.8 -5.8,6.9 -13,6.9 -7.2,0 -13,-3.1 -13,-6.9 V 9.5 c 0,3.8 5.8,6.9 13,6.9 7.2,0 13,-3.1 13,-6.9 z"
         class="st0"
         inkscape:connector-curvature="0"
         style="fill:none;stroke:#0065ff;stroke-width:2" />
      <path
         id="path891"
         d="m 35.5,17.5 v 8.1 c 0,3.8 -5.8,6.9 -13,6.9 -7.2,0 -13,-3.1 -13,-6.9 v -8.1 c 0,3.8 5.8,6.9 13,6.9 7.2,0 13,-3.1 13,-6.9 z"
         class="st0"
         inkscape:connector-curvature="0"
         style="fill:none;stroke:#0065ff;stroke-width:2" />
      <path
         id="path893"
         d="m 35.5,25.5 v 8.1 c 0,3.8 -5.8,6.9 -13,6.9 -7.2,0 -13,-3.1 -13,-6.9 v -8.1 c 0,3.8 5.8,6.9 13,6.9 7.2,0 13,-3.1 13,-6.9 z"
         class="st0"
         inkscape:connector-curvature="0"
         style="fill:none;stroke:#0065ff;stroke-width:2" />
    </g>
    <g
       id="g923"
       transform="matrix(0.28222222,0,0,0.28222222,0,244.16798)"
       style="fill:#0069ff;fill-rule:nonzero">
      <path
         id="path911"
         d="M 6.5,7.6 C 6.9,7.6 7.2,7.5 7.5,7.3 7.8,7 8,6.7 8,6.3 8,5.9 7.9,5.6 7.7,5.3 7.5,5 7.1,4.8 6.7,4.8 H 6.6 c -0.7,0 -1.4,0.6 -1.4,1.3 0,0.4 0.1,0.7 0.3,1 0.3,0.3 0.6,0.5 1,0.5 z M 2.7,13.3 C 3.5,13.3 4.1,12.8 4.2,12 4.2,11.6 4.1,11.3 3.9,11 3.7,10.7 3.3,10.5 2.9,10.5 H 2.8 c -0.7,0 -1.4,0.6 -1.4,1.3 0,0.4 0.1,0.7 0.3,1 0.2,0.3 0.6,0.4 1,0.5 z m 0.1,5.3 c 0,-0.4 -0.1,-0.7 -0.3,-1 -0.2,-0.3 -0.6,-0.5 -1,-0.5 H 1.4 c -0.3,0 -0.7,0.1 -0.9,0.3 -0.3,0.2 -0.5,0.6 -0.5,1 0,0.4 0.1,0.7 0.3,1 0.2,0.3 0.6,0.5 1,0.5 0.8,0.1 1.5,-0.5 1.5,-1.3 z m 0,5.3 c -0.4,0 -0.8,0.1 -1,0.3 -0.3,0.2 -0.5,0.6 -0.5,1 0,0.4 0.1,0.7 0.3,1 0.2,0.3 0.6,0.5 1,0.5 0.4,0 0.7,-0.1 1,-0.3 0.3,-0.2 0.5,-0.6 0.5,-1 0.1,-0.8 -0.5,-1.5 -1.3,-1.5 z m 3.9,5.7 c -0.8,0 -1.5,0.6 -1.5,1.3 0,0.4 0.1,0.7 0.3,1 0.2,0.3 0.6,0.5 1,0.5 0.4,0 0.7,-0.1 1,-0.3 C 7.8,31.9 8,31.5 8,31.1 8,30.7 7.9,30.4 7.7,30.1 7.5,29.8 7.1,29.7 6.7,29.6 Z m 5.7,3.7 c -0.4,0 -0.8,0.1 -1,0.3 -0.3,0.2 -0.5,0.6 -0.5,1 0,0.4 0.1,0.7 0.3,1 0.2,0.3 0.6,0.5 1,0.5 0.4,0 0.7,-0.1 1,-0.3 0.3,-0.2 0.5,-0.6 0.5,-1 0,-0.4 -0.1,-0.7 -0.3,-1 -0.3,-0.3 -0.6,-0.5 -1,-0.5 z"
         inkscape:connector-curvature="0" />
      <circle
         id="circle913"
         r="1.4"
         cy="27"
         cx="25.1" />
      <circle
         id="circle915"
         r="1.4"
         cy="21.799999"
         cx="28.799999" />
      <circle
         id="circle917"
         r="1.4"
         cy="15.5"
         cx="28.9" />
      <circle
         id="circle919"
         r="1.4"
         cy="10.1"
         cx="25" />
      <path
         id="path921"
         d="m 12.3,3.8 c 0.8,0 1.4,-0.5 1.5,-1.3 C 13.9,1.7 13.2,1 12.5,1 h -0.1 c -0.3,0 -0.7,0.1 -0.9,0.3 -0.3,0.2 -0.5,0.6 -0.5,1 0,0.4 0.1,0.7 0.3,1 0.2,0.3 0.6,0.5 1,0.5 z m 6.3,26.3 v -2.4 c -4.9,-0.2 -8.9,-4.2 -8.9,-9.2 0,-5 3.9,-9 8.9,-9.2 V 6.9 C 12.4,7.1 7.3,12.2 7.3,18.5 c 0,6.3 5.1,11.4 11.3,11.6 z M 19.2,0 v 2.4 c 8.8,0.2 15.9,7.4 15.9,16.2 0,8.8 -7.1,16 -15.9,16.2 v 2.4 C 29.3,37 37.5,28.7 37.5,18.6 37.5,8.5 29.3,0.2 19.2,0 Z"
         inkscape:connector-curvature="0" />
    </g>
    <g
       id="g45"
       transform="matrix(0.26458333,0,0,0.26458333,-0.79374999,201.11499)"
       style="fill:#005dff;fill-rule:nonzero">
      <path
         id="path41"
         transform="translate(3,3)"
         d="M 37.29,0 H 11 C 9.5033083,0 8.29,1.2133083 8.29,2.71 V 8.29 H 2.71 C 1.2155858,8.2954841 0.00548414,9.5055858 0,11 v 25.08 c -1.0125993e-5,1.498318 1.2116922,2.714491 2.71,2.72 H 29 c 1.498308,-0.0055 2.71001,-1.221682 2.71,-2.72 v -5.57 h 5.58 C 38.784414,30.5045 39.994516,29.294414 40,27.8 V 2.71 C 39.994516,1.2155858 38.784414,0.00548414 37.29,0 Z m 0.76,27.8 c 0,0.419736 -0.340264,0.76 -0.76,0.76 H 11 c -0.419736,0 -0.76,-0.340264 -0.76,-0.76 V 2.71 C 10.266378,2.3099067 10.599039,1.9991314 11,2 h 26.29 c 0.419736,0 0.76,0.3402636 0.76,0.76 z m -8.29,8.28 c 3.5e-5,0.421384 -0.338651,0.764527 -0.76,0.77 H 2.71 C 2.3083342,36.818608 1.9987751,36.482889 2,36.08 V 11 C 2,10.580264 2.3402636,10.24 2.76,10.24 H 8.29 V 27.8 c 0,1.496692 1.2133083,2.71 2.71,2.71 h 18.76 z"
         inkscape:connector-curvature="0" />
      <path
         id="path43"
         transform="translate(3,3)"
         d="m 30.61,10.36 h 0.16 V 8.97 8.4 h -1.03 -7.26 v 0.86 0.98 0.12 h 6.9 z M 19.77,10.24 V 9.26 8.4 h -4.32 v 0.86 0.98 0.12 h 4.32 z m 10.97,4.48 h -0.98 -2.53 v 1.95 h 2.53 0.98 0.97 1.92 v -1.95 h -1.92 z m -15.3,0 h 8.94 v 1.95 h -8.94 z m 14.32,6.31 h -6.65 v 1.95 h 6.65 0.98 0.22 v -1.95 h -0.22 z m -14.32,0 h 4.68 v 1.95 h -4.68 z"
         inkscape:connector-curvature="0" />
    </g>
    <g
       id="g62"
       transform="matrix(0.26458333,0,0,0.26458333,-0.79372369,222.45364)"
       style="fill:#005dff;fill-rule:nonzero">
      <path
         id="path58"
         transform="translate(3,2)"
         d="M 7.14,0 V 21.73 H 0 V 35.2 c -0.00875234,1.320958 0.56079849,2.579637 1.5588633,3.445011 C 2.5569281,39.510385 3.8836108,39.895839 5.19,39.7 H 35.24 C 37.868875,39.7 40,37.568875 40,34.94 V 0.07 Z m 0,35.07 C 7.1705306,36.363941 6.2686183,37.493439 5,37.75 H 4.54 C 3.1489286,37.713035 2.0314989,36.591206 2,35.2 V 23.68 h 5.14 z m 30.91,-0.13 c 0,1.55192 -1.25808,2.81 -2.81,2.81 H 8.29 c 0.5290215,-0.793067 0.8077215,-1.726712 0.8,-2.68 V 2 l 29,0.06 z"
         inkscape:connector-curvature="0" />
      <path
         id="path60"
         transform="translate(3,2)"
         d="m 15.56,23.18 h 16.21 v 1.95 H 15.56 Z m 0,5.83 h 16.21 v 1.95 H 15.56 Z M 31.62,8.07 H 15.71 v 10.8 h 15.91 z m -1.95,8.85 h -12 V 10 h 12 z"
         inkscape:connector-curvature="0" />
    </g>
    <g
       id="g81"
       transform="matrix(0.26458333,0,0,0.26458333,-0.74083332,211.80413)"
       style="fill:#005dff;fill-rule:nonzero">
      <path
         id="path75"
         transform="translate(3,2)"
         d="m 27.76,20.05 h 5.12 V 22 h -5.12 z m -6.22,4.64 h 11.34 v 1.95 H 21.54 Z"
         inkscape:connector-curvature="0" />
      <path
         id="path77"
         transform="translate(3,2)"
         d="M 37.32,11.65 H 25.08 V 2.32 C 25.08,1.0386994 24.041301,0 22.76,0 H 2.32 C 1.0386994,0 0,1.0386994 0,2.32 v 17.87 c 0,1.281301 1.0386994,2.32 2.32,2.32 H 5 v 4.86 c 0.00649,0.391613 0.2410076,0.743387 0.6,0.9 0.1202223,0.05124 0.2493227,0.07842 0.38,0.08 0.2588682,-0.0037 0.5062113,-0.107659 0.69,-0.29 l 5.52,-5.55 h 2.42 v 9.33 c 0,1.281301 1.038699,2.32 2.32,2.32 h 10.6 L 33,39.71 c 0.183789,0.182341 0.431132,0.286297 0.69,0.29 0.126792,0.0019 0.252651,-0.02195 0.37,-0.07 0.366183,-0.155065 0.605689,-0.512362 0.61,-0.91 v -4.86 h 2.63 c 1.282928,1.2e-5 2.324494,-1.037083 2.33,-2.32 V 14 C 39.6353,13.382039 39.39494,12.787274 38.961726,12.346558 38.528512,11.905843 37.937962,11.655282 37.32,11.65 Z M 6.91,25 v -3.46 c 0,-0.552285 -0.4477153,-1 -1,-1 H 2.32 C 2.1446892,20.512374 2.0118477,20.367078 2,20.19 V 2.32 C 2.024597,2.1545223 2.1545223,2.024597 2.32,2 h 20.44 c 0.20213,0.00525 0.364747,0.1678704 0.37,0.37 v 17.82 c -0.0053,0.20213 -0.16787,0.364747 -0.37,0.37 h -11 c -0.260228,-0.003 -0.510061,0.101986 -0.69,0.29 z m 30.79,6.84 c 3.7e-5,0.09989 -0.04031,0.195546 -0.111882,0.265229 C 37.516552,32.174913 37.419851,32.2127 37.32,32.21 h -3.61 c -0.552285,0 -1,0.447715 -1,1 v 3.47 L 28.59,32.5 C 28.406211,32.317659 28.158868,32.213703 27.9,32.21 h -11 c -0.09896,0.0028 -0.194699,-0.0353 -0.264701,-0.105299 -0.07,-0.07 -0.108088,-0.165742 -0.105299,-0.264701 v -9.33 h 6.24 c 1.281301,0 2.32,-1.038699 2.32,-2.32 V 13.6 h 12.23 c 0.209868,0 0.38,0.170132 0.38,0.38 z"
         inkscape:connector-curvature="0" />
      <path
         id="path79"
         transform="translate(3,2)"
         d="m 13.32,15.24 c 0,-0.651696 -0.528304,-1.18 -1.18,-1.18 -0.651696,0 -1.18,0.528304 -1.18,1.18 0,0.651696 0.528304,1.18 1.18,1.18 0.651696,0 1.18,-0.528304 1.18,-1.18 z M 12.16,8 C 12.493913,7.972411 12.823056,8.09311 13.059973,8.3300269 13.29689,8.5669436 13.417589,8.8960869 13.39,9.23 c 0,0.62 -0.44,1 -1,1.5 -0.706685,0.437599 -1.174493,1.174304 -1.27,2 v 0.5 h 2 v -0.42 c 0,-0.6 0.41,-1 1,-1.42 0.776225,-0.467561 1.264878,-1.294514 1.3,-2.2 0,-1.84 -1.27,-3 -3.31,-3 C 11.261465,6.1119273 10.418806,6.3912088 9.7848654,6.9606168 9.1509245,7.5300248 8.7831241,8.3379822 8.77,9.19 l 2,0.13 C 10.743205,8.9497461 10.883702,8.5869629 11.152886,8.3313347 11.422071,8.0757065 11.791623,7.9541258 12.16,8 Z"
         inkscape:connector-curvature="0" />
    </g>
    <g
       id="g99"
       transform="matrix(0.26416003,0,0,0.26458333,-0.77559994,232.71224)"
       style="fill:#005dff;fill-rule:nonzero">
      <path
         id="path95"
         transform="translate(2,3)"
         d="m 21.49,26.93 c 0.71,-0.41 7,-4.15 7,-8.39 0.0135,-1.124212 -0.426443,-2.206465 -1.220497,-3.002401 C 26.47545,14.741664 25.394241,14.29916 24.27,14.31 23.006167,14.305885 21.8067,14.867104 21,15.84 19.86425,14.468732 17.990027,13.957854 16.315517,14.563098 14.641008,15.168343 13.526545,16.759469 13.53,18.54 c 0,4.24 6.27,8 7,8.39 l 0.49,0.28 z m -6,-8.39 c 0,-0.810993 0.43266,-1.560381 1.135,-1.965878 0.70234,-0.405496 1.56766,-0.405496 2.27,0 0.702341,0.405497 1.135,1.154885 1.135,1.965878 h 2 c -1.2e-5,-1.255314 1.014698,-2.274494 2.27,-2.28 0.607105,-0.01105 1.192464,0.22595 1.620879,0.656252 C 26.349294,17.346554 26.583715,17.932949 26.57,18.54 26.52,21 22.9,23.75 21,25 19.1,23.75 15.48,21 15.48,18.54 Z"
         inkscape:connector-curvature="0" />
      <path
         id="path97"
         transform="translate(2,3)"
         d="M 41,20 C 41.0096,14.972041 39.107832,10.128374 35.68,6.45 L 35,5.74 C 31.186495,1.990133 26.029953,-0.07611882 20.682234,0.00280043 15.334515,0.08171968 10.241191,2.2992344 6.54,6.16 L 5.88,6.85 C -0.75734478,14.412031 -0.70584068,25.738642 6,33.24 l 0.7,0.72 c 3.711404,3.795582 8.779538,5.959928 14.087814,6.016199 C 26.096091,40.032471 31.208967,37.976051 35,34.26 l 0.72,-0.71 C 39.134996,29.866562 41.022419,25.022889 41,20 Z m -2,0 c 0.02302,4.504014 -1.655613,8.850605 -4.7,12.17 L 31,29.05 c 4.603068,-5.059484 4.671942,-12.769086 0.16,-17.91 l 3.16,-3.28 c 3.049102,3.306688 4.738269,7.642096 4.73,12.14 z M 9.45,20 c -0.00164,-2.931152 1.114106,-5.752702 3.12,-7.89 3.786547,-4.0373781 9.907853,-4.8142895 14.582937,-1.850855 4.675085,2.963434 6.584642,8.830935 4.549186,13.978291 C 29.666666,29.384792 24.2606,32.359423 18.823119,31.323972 13.385638,30.288522 9.4511957,25.535193 9.45,20 Z M 21,2 c 4.412695,-0.031308 8.683152,1.5594371 12,4.47 L 29.78,9.75 C 27.34021,7.644687 24.22255,6.4906559 21,6.5 17.619475,6.50802 14.363664,7.7775335 11.87,10.06 L 8.65,6.84 C 11.992145,3.7002047 16.414462,1.9670862 21,2 Z M 3,20 C 2.9835041,15.699657 4.5131445,11.536622 7.31,8.27 l 3.23,3.22 C 6.3984801,16.550124 6.4997836,23.856642 10.78,28.8 L 7.46,31.91 C 4.573659,28.614943 2.9879413,24.380436 3,20 Z M 21,38.05 C 16.485953,38.06495 12.132554,36.375729 8.81,33.32 l 3.34,-3.13 c 4.977883,4.326853 12.354554,4.419907 17.44,0.22 l 3.33,3.15 C 29.626728,36.459485 25.38778,38.056203 21,38.05 Z"
         inkscape:connector-curvature="0" />
    </g>
  </g>
  <style
     id="style883">.st0{fill:none;stroke:#0065ff;stroke-width:2}</style>
</svg>
