<?xml version="1.0" encoding="UTF-8" standalone="no"?>
<!-- Created with Inkscape (http://www.inkscape.org/) -->

<svg
   xmlns:dc="http://purl.org/dc/elements/1.1/"
   xmlns:cc="http://creativecommons.org/ns#"
   xmlns:rdf="http://www.w3.org/1999/02/22-rdf-syntax-ns#"
   xmlns:svg="http://www.w3.org/2000/svg"
   xmlns="http://www.w3.org/2000/svg"
   xmlns:sodipodi="http://sodipodi.sourceforge.net/DTD/sodipodi-0.dtd"
   xmlns:inkscape="http://www.inkscape.org/namespaces/inkscape"
   width="40"
   height="400"
   viewBox="0 0 10.583333 105.83334"
   version="1.1"
   id="svg8"
   inkscape:version="0.92.5 (2060ec1f9f, 2020-04-08)"
   sodipodi:docname="drawing2.svg">
  <defs
     id="defs2">
    <style
       id="style843">.cls-1{fill:#0069ff;}</style>
  </defs>
  <sodipodi:namedview
     id="base"
     pagecolor="#ffffff"
     bordercolor="#666666"
     borderopacity="1.0"
     inkscape:pageopacity="0.0"
     inkscape:pageshadow="2"
     inkscape:zoom="1.4"
     inkscape:cx="189.0874"
     inkscape:cy="193.62459"
     inkscape:document-units="mm"
     inkscape:current-layer="layer1"
     showgrid="false"
     units="px"
     inkscape:window-width="1848"
     inkscape:window-height="1016"
     inkscape:window-x="72"
     inkscape:window-y="27"
     inkscape:window-maximized="1" />
  <metadata
     id="metadata5">
    <rdf:RDF>
      <cc:Work
         rdf:about="">
        <dc:format>image/svg+xml</dc:format>
        <dc:type
           rdf:resource="http://purl.org/dc/dcmitype/StillImage" />
        <dc:title></dc:title>
      </cc:Work>
    </rdf:RDF>
  </metadata>
  <g
     inkscape:label="Layer 1"
     inkscape:groupmode="layer"
     id="layer1"
     transform="translate(0,-191.16665)">
    <g
       style="fill:none"
       id="g994"
       transform="matrix(0.26783592,0,0,0.26783592,-0.06314433,286.35351)">
      <path
         id="path959"
         d="m 27.5,38.75 c 6.2132,0 11.25,-5.0368 11.25,-11.25 0,-6.2132 -5.0368,-11.25 -11.25,-11.25 -6.2132,0 -11.25,5.0368 -11.25,11.25 0,6.2132 5.0368,11.25 11.25,11.25 z"
         inkscape:connector-curvature="0"
         style="stroke:#0069ff;stroke-width:2;stroke-linecap:round;stroke-linejoin:round" />
      <path
         id="path961"
         d="M 16.89,31.25 H 38.11"
         inkscape:connector-curvature="0"
         style="stroke:#0069ff;stroke-width:2;stroke-linecap:round;stroke-linejoin:round" />
      <path
         id="path963"
         d="M 16.89,23.75 H 38.11"
         inkscape:connector-curvature="0"
         style="stroke:#0069ff;stroke-width:2;stroke-linecap:round;stroke-linejoin:round" />
      <path
         id="path965"
         d="m 25.0733,16.5133 c -2.0187,7.2852 -1.7217,15.0179 0.85,22.1267"
         inkscape:connector-curvature="0"
         style="stroke:#0069ff;stroke-width:2;stroke-linecap:round;stroke-linejoin:round" />
      <path
         id="path967"
         d="m 29.9267,16.5133 c 0.8813,3.1704 1.3265,6.4461 1.3233,9.7367 0.007,4.2248 -0.7263,8.4183 -2.1667,12.39"
         inkscape:connector-curvature="0"
         style="stroke:#0069ff;stroke-width:2;stroke-linecap:round;stroke-linejoin:round" />
      <path
         id="path969"
         d="M 36.25,12.5 V 3.94333 C 36.2482,3.22985 35.9641,2.54606 35.4598,2.04139 34.9554,1.53672 34.2718,1.2522 33.5583,1.25 H 3.92833 C 3.21867,1.2522 2.5387,1.53508 2.03689,2.03689 1.53508,2.5387 1.2522,3.21867 1.25,3.92833 V 29.8083 c 0.0022,0.7132 0.28649,1.3966 0.7908,1.9009 0.50431,0.5043 1.18767,0.7886 1.90087,0.7908 H 11.25"
         inkscape:connector-curvature="0"
         style="stroke:#0069ff;stroke-width:2;stroke-linecap:round;stroke-linejoin:round" />
      <path
         id="path971"
         d="m 1.25,8.75 h 35"
         inkscape:connector-curvature="0"
         style="stroke:#0069ff;stroke-width:2;stroke-linecap:round;stroke-linejoin:round" />
      <path
         id="path973"
         d="m 11.25,1.25 v 7.5"
         inkscape:connector-curvature="0"
         style="stroke:#0069ff;stroke-width:2;stroke-linecap:round;stroke-linejoin:round" />
      <path
         id="path975"
         d="m 18.75,1.25 v 7.5"
         inkscape:connector-curvature="0"
         style="stroke:#0069ff;stroke-width:2;stroke-linecap:round;stroke-linejoin:round" />
    </g>
    <g
       style="fill:none"
       id="g1277"
       transform="matrix(0.26783592,0,0,0.26783592,-0.06314433,275.77017)">
      <path
         id="path1251"
         d="m 27.5,31.875 c 0.1236,0 0.2445,0.0367 0.3472,0.1053 0.1028,0.0687 0.1829,0.1663 0.2302,0.2805 0.0473,0.1142 0.0597,0.2399 0.0356,0.3611 -0.0241,0.1213 -0.0836,0.2326 -0.1711,0.32 -0.0874,0.0875 -0.1987,0.147 -0.32,0.1711 -0.1212,0.0241 -0.2469,0.0117 -0.3611,-0.0356 C 27.1466,33.0301 27.049,32.95 26.9803,32.8472 26.9117,32.7445 26.875,32.6236 26.875,32.5 c 0,-0.1658 0.0658,-0.3247 0.1831,-0.4419 0.1172,-0.1173 0.2761,-0.1831 0.4419,-0.1831 z"
         inkscape:connector-curvature="0"
         style="stroke:#0069ff;stroke-width:2;stroke-linecap:round;stroke-linejoin:round" />
      <path
         id="path1253"
         d="m 36.25,1.25 h -17.5 c -1.3807,0 -2.5,1.11929 -2.5,2.5 v 32.5 c 0,1.3807 1.1193,2.5 2.5,2.5 h 17.5 c 1.3807,0 2.5,-1.1193 2.5,-2.5 V 3.75 c 0,-1.38071 -1.1193,-2.5 -2.5,-2.5 z"
         inkscape:connector-curvature="0"
         style="stroke:#0069ff;stroke-width:2;stroke-linecap:round;stroke-linejoin:round" />
      <path
         id="path1255"
         d="m 11.25,10.07 c -1.73808,3.4651 -2.59667,7.3047 -2.5,11.18 -0.09524,3.8605 0.75561,7.6856 2.4783,11.1417 l 0.0367,3.01 C 8.3339,34.3717 5.79494,32.4569 3.99879,29.922 2.20265,27.387 1.23796,24.3568 1.23796,21.25 c 0,-3.1068 0.96469,-6.137 2.76083,-8.672 C 5.79494,10.0431 8.3339,8.12834 11.265,7.09833 Z"
         inkscape:connector-curvature="0"
         style="stroke:#0069ff;stroke-width:2;stroke-linecap:round;stroke-linejoin:round" />
      <path
         id="path1257"
         d="m 1.25,21.25 h 10"
         inkscape:connector-curvature="0"
         style="stroke:#0069ff;stroke-width:2;stroke-linecap:round;stroke-linejoin:round" />
      <path
         id="path1259"
         d="M 3.25666,13.75 H 11.25"
         inkscape:connector-curvature="0"
         style="stroke:#0069ff;stroke-width:2;stroke-linecap:round;stroke-linejoin:round" />
      <path
         id="path1261"
         d="M 3.25666,28.75 H 11.25"
         inkscape:connector-curvature="0"
         style="stroke:#0069ff;stroke-width:2;stroke-linecap:round;stroke-linejoin:round" />
    </g>
    <g
       style="fill:none"
       id="g1299"
       transform="matrix(0.26793269,0,0,0.26793269,-0.06849274,265.17809)">
      <path
         id="path1279"
         d="M 28.7483,38.7683 H 3.74833 C 3.34495,38.7672 2.94784,38.6684 2.59091,38.4805 2.23398,38.2925 1.92782,38.021 1.69857,37.6891 1.46933,37.3572 1.3238,36.9747 1.27443,36.5744 1.22505,36.174 1.27328,35.7677 1.415,35.39 l 1.875,-5 c 0.17833,-0.4752 0.49708,-0.8849 0.91387,-1.1746 0.4168,-0.2896 0.91189,-0.4456 1.41947,-0.4471 H 26.8733 c 0.5076,0.0015 1.0027,0.1575 1.4195,0.4471 0.4168,0.2897 0.7355,0.6994 0.9139,1.1746 l 1.875,5 c 0.1417,0.3777 0.1899,0.784 0.1405,1.1844 -0.0493,0.4003 -0.1949,0.7828 -0.4241,1.1147 -0.2292,0.3319 -0.5354,0.6034 -0.8923,0.7914 -0.357,0.1879 -0.7541,0.2867 -1.1575,0.2878 z"
         inkscape:connector-curvature="0"
         style="stroke:#0069ff;stroke-width:2;stroke-linecap:round;stroke-linejoin:round" />
      <path
         id="path1281"
         d="m 13.75,33.7683 h 5"
         inkscape:connector-curvature="0"
         style="stroke:#0069ff;stroke-width:2;stroke-linecap:round;stroke-linejoin:round" />
      <path
         id="path1283"
         d="m 28.75,21.2683 v 5 c 0,0.6631 -0.2634,1.299 -0.7322,1.7678 -0.4689,0.4688 -1.1048,0.7322 -1.7678,0.7322 h -20 c -0.66304,0 -1.29893,-0.2634 -1.76777,-0.7322 C 4.01339,27.5673 3.75,26.9314 3.75,26.2683 v -12.5 c 0,-0.663 0.26339,-1.2989 0.73223,-1.7677 C 4.95107,11.5317 5.58696,11.2683 6.25,11.2683 h 7.5"
         inkscape:connector-curvature="0"
         style="stroke:#0069ff;stroke-width:2;stroke-linecap:round;stroke-linejoin:round" />
      <path
         id="path1285"
         d="m 38.75,3.76833 -5,1.66667 V 3.76833 C 33.75,3.10529 33.4866,2.46941 33.0178,2.00057 32.5489,1.53173 31.913,1.26833 31.25,1.26833 h -10 c -0.663,0 -1.2989,0.2634 -1.7678,0.73224 C 19.0134,2.46941 18.75,3.10529 18.75,3.76833 v 9.99997 c 0,0.6631 0.2634,1.299 0.7322,1.7678 0.4689,0.4688 1.1048,0.7322 1.7678,0.7322 h 10 c 0.663,0 1.2989,-0.2634 1.7678,-0.7322 0.4688,-0.4688 0.7322,-1.1047 0.7322,-1.7678 v -1.6666 l 5,1.6666 z"
         inkscape:connector-curvature="0"
         style="stroke:#0069ff;stroke-width:2;stroke-linecap:round;stroke-linejoin:round" />
    </g>
    <g
       style="fill:none"
       id="g1330"
       transform="matrix(0.26793249,0,0,0.26793249,-0.06698312,254.59967)">
      <path
         id="path1301"
         d="m 36.25,8.75 h -15 c -1.3807,0 -2.5,1.11929 -2.5,2.5 v 5 c 0,1.3807 1.1193,2.5 2.5,2.5 h 15 c 1.3807,0 2.5,-1.1193 2.5,-2.5 v -5 c 0,-1.38071 -1.1193,-2.5 -2.5,-2.5 z"
         inkscape:connector-curvature="0"
         style="stroke:#0069ff;stroke-width:2;stroke-linecap:round;stroke-linejoin:round" />
      <path
         id="path1303"
         d="M 38.63,10.4817 36.25,1.25 h -2.5 L 32.5,3.75 H 25 l -1.25,-2.5 h -2.5 l -2.38,9.2317"
         inkscape:connector-curvature="0"
         style="stroke:#0069ff;stroke-width:2;stroke-linecap:round;stroke-linejoin:round" />
      <path
         id="path1305"
         d="m 23.75,13.125 c -0.1236,0 -0.2445,0.0367 -0.3472,0.1053 -0.1028,0.0687 -0.1829,0.1663 -0.2302,0.2805 -0.0473,0.1142 -0.0597,0.2399 -0.0356,0.3611 0.0241,0.1213 0.0836,0.2326 0.1711,0.32 0.0874,0.0875 0.1987,0.147 0.32,0.1711 0.1212,0.0241 0.2469,0.0117 0.3611,-0.0356 0.1142,-0.0473 0.2118,-0.1274 0.2805,-0.2302 0.0686,-0.1027 0.1053,-0.2236 0.1053,-0.3472 0,-0.1658 -0.0658,-0.3247 -0.1831,-0.4419 C 24.0747,13.1908 23.9158,13.125 23.75,13.125 Z"
         inkscape:connector-curvature="0"
         style="stroke:#0069ff;stroke-width:2;stroke-linecap:round;stroke-linejoin:round" />
      <path
         id="path1307"
         d="m 33.75,13.125 c -0.1236,0 -0.2445,0.0367 -0.3472,0.1053 -0.1028,0.0687 -0.1829,0.1663 -0.2302,0.2805 -0.0473,0.1142 -0.0597,0.2399 -0.0356,0.3611 0.0241,0.1213 0.0836,0.2326 0.1711,0.32 0.0874,0.0875 0.1987,0.147 0.32,0.1711 0.1212,0.0241 0.2469,0.0117 0.3611,-0.0356 0.1142,-0.0473 0.2118,-0.1274 0.2805,-0.2302 0.0686,-0.1027 0.1053,-0.2236 0.1053,-0.3472 0,-0.1658 -0.0658,-0.3247 -0.1831,-0.4419 C 34.0747,13.1908 33.9158,13.125 33.75,13.125 Z"
         inkscape:connector-curvature="0"
         style="stroke:#0069ff;stroke-width:2;stroke-linecap:round;stroke-linejoin:round" />
      <path
         id="path1309"
         d="M 36.25,18.75 V 32.5 c 0,0.9946 -0.3951,1.9484 -1.0984,2.6516 -0.7032,0.7033 -1.657,1.0984 -2.6516,1.0984 -0.9946,0 -1.9484,-0.3951 -2.6517,-1.0984 C 29.1451,34.4484 28.75,33.4946 28.75,32.5 v -1.25 c 0,-0.663 -0.2634,-1.2989 -0.7322,-1.7678 C 27.5489,29.0134 26.913,28.75 26.25,28.75 H 20"
         inkscape:connector-curvature="0"
         style="stroke:#0069ff;stroke-width:2;stroke-linecap:round;stroke-linejoin:round" />
      <path
         id="path1311"
         d="m 1.25,33.75 c 0,1.3261 0.52678,2.5979 1.46447,3.5355 C 3.65215,38.2232 4.92392,38.75 6.25,38.75 h 10 c 1.3261,0 2.5979,-0.5268 3.5355,-1.4645 C 20.7232,36.3479 21.25,35.0761 21.25,33.75 Z"
         inkscape:connector-curvature="0"
         style="stroke:#0069ff;stroke-width:2;stroke-linecap:round;stroke-linejoin:round" />
      <path
         id="path1313"
         d="M 17.5,23.75 H 5 c -0.66304,0 -1.29893,0.2634 -1.76777,0.7322 C 2.76339,24.9511 2.5,25.587 2.5,26.25 v 7.5 H 20 v -7.5 C 20,25.587 19.7366,24.9511 19.2678,24.4822 18.7989,24.0134 18.163,23.75 17.5,23.75 Z"
         inkscape:connector-curvature="0"
         style="stroke:#0069ff;stroke-width:2;stroke-linecap:round;stroke-linejoin:round" />
    </g>
    <g
       style="fill:none"
       id="g1352"
       transform="matrix(0.26785327,0,0,0.26785327,-0.06383402,244.01948)">
      <path
         id="path1332"
         d="m 36.25,26.25 h -10 c -1.3807,0 -2.5,1.1193 -2.5,2.5 v 7.5 c 0,1.3807 1.1193,2.5 2.5,2.5 h 10 c 1.3807,0 2.5,-1.1193 2.5,-2.5 v -7.5 c 0,-1.3807 -1.1193,-2.5 -2.5,-2.5 z"
         inkscape:connector-curvature="0"
         style="stroke:#0069ff;stroke-width:2;stroke-linecap:round;stroke-linejoin:round" />
      <path
         id="path1334"
         d="m 31.25,18.75 c -1.3261,0 -2.5979,0.5268 -3.5355,1.4645 C 26.7768,21.1521 26.25,22.4239 26.25,23.75 v 2.5 h 10 v -2.5 c 0,-1.3261 -0.5268,-2.5979 -1.4645,-3.5355 C 33.8479,19.2768 32.5761,18.75 31.25,18.75 Z"
         inkscape:connector-curvature="0"
         style="stroke:#0069ff;stroke-width:2;stroke-linecap:round;stroke-linejoin:round" />
      <path
         id="path1336"
         d="m 31.25,31.925 c -0.1236,0 -0.2445,0.0367 -0.3472,0.1053 -0.1028,0.0687 -0.1829,0.1663 -0.2302,0.2805 -0.0473,0.1142 -0.0597,0.2399 -0.0356,0.3611 0.0241,0.1213 0.0836,0.2326 0.1711,0.32 0.0874,0.0875 0.1987,0.147 0.32,0.1711 0.1212,0.0241 0.2469,0.0117 0.3611,-0.0356 0.1142,-0.0473 0.2118,-0.1274 0.2805,-0.2302 0.0686,-0.1027 0.1053,-0.2236 0.1053,-0.3472 0,-0.1658 -0.0658,-0.3247 -0.1831,-0.4419 C 31.5747,31.9909 31.4158,31.925 31.25,31.925 Z"
         inkscape:connector-curvature="0"
         style="stroke:#0069ff;stroke-width:2;stroke-linecap:round;stroke-linejoin:round" />
      <path
         id="path1338"
         d="M 38.5,16.0983 C 38.1752,14.8313 37.5489,13.6615 36.6744,12.6888 35.7999,11.716 34.7032,10.9691 33.4777,10.5117 32.2523,10.0544 30.9344,9.90006 29.6364,10.062 28.3385,10.2239 27.0989,10.6972 26.0233,11.4417 25.5849,9.10851 24.4912,6.94844 22.8701,5.21415 21.249,3.47986 19.1675,2.24306 16.8692,1.64845 14.5709,1.05384 12.1508,1.126 9.89197,1.85649 7.63317,2.58699 5.62909,3.9456 4.11419,5.77341 c -1.5149,1.8278 -2.47799,4.0492 -2.7766,6.40429 -0.2986,2.3552 0.07963,4.7466 1.09045,6.8947 1.01081,2.148 2.61241,3.9638 4.61743,5.2349 2.00502,1.2711 4.33053,1.9449 6.70453,1.9427 h 5"
         inkscape:connector-curvature="0"
         style="stroke:#0069ff;stroke-width:2;stroke-linecap:round;stroke-linejoin:round" />
    </g>
    <g
       style="fill:none"
       id="g1398"
       transform="matrix(0.26793249,0,0,0.26793249,-0.06698312,233.433)">
      <path
         id="path1354"
         d="m 31.25,1.25 v 2.5 h -7.5 V 1.25 H 6.25 C 4.92392,1.25 3.65215,1.77678 2.71447,2.71447 1.77678,3.65215 1.25,4.92392 1.25,6.25 V 25 h 2.5 v 5 h -2.5 v 3.75 c 0,1.3261 0.52678,2.5979 1.46447,3.5355 C 3.65215,38.2232 4.92392,38.75 6.25,38.75 h 27.5 c 1.3261,0 2.5979,-0.5268 3.5355,-1.4645 C 38.2232,36.3479 38.75,35.0761 38.75,33.75 V 6.25 C 38.75,4.92392 38.2232,3.65215 37.2855,2.71447 36.3479,1.77678 35.0761,1.25 33.75,1.25 Z"
         inkscape:connector-curvature="0"
         style="stroke:#0069ff;stroke-width:2;stroke-linecap:round;stroke-linejoin:round" />
      <path
         id="path1356"
         d="M 31.25,25 H 35"
         inkscape:connector-curvature="0"
         style="stroke:#0069ff;stroke-width:2;stroke-linecap:round;stroke-linejoin:round" />
      <path
         id="path1358"
         d="M 31.25,20 H 35"
         inkscape:connector-curvature="0"
         style="stroke:#0069ff;stroke-width:2;stroke-linecap:round;stroke-linejoin:round" />
      <path
         id="path1360"
         d="m 12.5,25 h 3.75"
         inkscape:connector-curvature="0"
         style="stroke:#0069ff;stroke-width:2;stroke-linecap:round;stroke-linejoin:round" />
      <path
         id="path1362"
         d="m 12.5,20 h 3.75"
         inkscape:connector-curvature="0"
         style="stroke:#0069ff;stroke-width:2;stroke-linecap:round;stroke-linejoin:round" />
      <path
         id="path1364"
         d="m 26.25,30 v 3.75"
         inkscape:connector-curvature="0"
         style="stroke:#0069ff;stroke-width:2;stroke-linecap:round;stroke-linejoin:round" />
      <path
         id="path1366"
         d="m 21.25,30 v 3.75"
         inkscape:connector-curvature="0"
         style="stroke:#0069ff;stroke-width:2;stroke-linecap:round;stroke-linejoin:round" />
      <path
         id="path1368"
         d="M 26.25,11.25 V 15"
         inkscape:connector-curvature="0"
         style="stroke:#0069ff;stroke-width:2;stroke-linecap:round;stroke-linejoin:round" />
      <path
         id="path1370"
         d="M 21.25,11.25 V 15"
         inkscape:connector-curvature="0"
         style="stroke:#0069ff;stroke-width:2;stroke-linecap:round;stroke-linejoin:round" />
      <path
         id="path1372"
         d="m 28.75,15 h -10 c -1.3807,0 -2.5,1.1193 -2.5,2.5 v 10 c 0,1.3807 1.1193,2.5 2.5,2.5 h 10 c 1.3807,0 2.5,-1.1193 2.5,-2.5 v -10 c 0,-1.3807 -1.1193,-2.5 -2.5,-2.5 z"
         inkscape:connector-curvature="0"
         style="stroke:#0069ff;stroke-width:2;stroke-linecap:round;stroke-linejoin:round" />
      <path
         id="path1374"
         d="m 6.25,6.25 v 5"
         inkscape:connector-curvature="0"
         style="stroke:#0069ff;stroke-width:2;stroke-linecap:round;stroke-linejoin:round" />
      <path
         id="path1376"
         d="m 11.25,6.25 v 5"
         inkscape:connector-curvature="0"
         style="stroke:#0069ff;stroke-width:2;stroke-linecap:round;stroke-linejoin:round" />
    </g>
    <g
       style="fill:none"
       id="g1414"
       transform="matrix(0.26772601,0,0,0.26772601,-0.06179694,222.85793)">
      <path
         id="path1400"
         d="m 32.3083,26.0767 c 1.1773,-0.2476 2.285,-0.7535 3.2429,-1.4813 0.958,-0.7277 1.7424,-1.6591 2.2966,-2.7269 0.5542,-1.0677 0.8644,-2.2453 0.9081,-3.4475 0.0438,-1.2022 -0.18,-2.3992 -0.6551,-3.5044 C 37.6256,13.8113 36.911,12.8254 36.0084,12.03 35.1059,11.2346 34.0379,10.6495 32.8817,10.317 31.7256,9.98453 30.51,9.91296 29.3228,10.1075 28.1355,10.3019 27.0063,10.7577 26.0167,11.4417 25.621,9.33175 24.6886,7.35929 23.3094,5.71431 21.9302,4.06934 20.1505,2.80728 18.1419,2.04974 16.1333,1.2922 13.9635,1.0647 11.8415,1.38917 9.71946,1.71363 7.71675,2.57913 6.02631,3.90226 4.33587,5.2254 3.01467,6.96158 2.19,8.94355 1.36532,10.9255 1.06497,13.0865 1.31787,15.2182 c 0.25291,2.1317 1.05055,4.1624 2.31607,5.8964 1.26553,1.734 2.95629,3.1129 4.9094,4.0037"
         inkscape:connector-curvature="0"
         style="stroke:#0069ff;stroke-width:2;stroke-linecap:round;stroke-linejoin:round" />
      <path
         id="path1402"
         d="m 27.3133,26.9067 c 0.117,-0.1895 0.1812,-0.4068 0.1861,-0.6294 C 27.5043,26.0547 27.4496,25.8348 27.341,25.6404 27.2324,25.446 27.0739,25.2842 26.8818,25.1716 26.6897,25.059 26.471,24.9998 26.2483,25 h -2.5 V 16.2517 L 13.415,28.0967 c -0.1158,0.1889 -0.1794,0.4052 -0.1841,0.6267 -0.0047,0.2216 0.0496,0.4404 0.1573,0.6341 0.1077,0.1937 0.2649,0.3552 0.4556,0.4681 0.1907,0.1129 0.4079,0.1731 0.6295,0.1744 h 4.275 v 8.75 z"
         inkscape:connector-curvature="0"
         style="stroke:#0069ff;stroke-width:2;stroke-linecap:round;stroke-linejoin:round" />
    </g>
    <g
       style="fill:none"
       id="g1436"
       transform="matrix(0.285816,0,0,0.285816,-0.42465326,211.89552)">
      <path
         id="path1416"
         d="M 35,3.75 H 5 c -1.38071,0 -2.5,1.11929 -2.5,2.5 v 27.5 c 0,1.3807 1.11929,2.5 2.5,2.5 h 30 c 1.3807,0 2.5,-1.1193 2.5,-2.5 V 6.25 c 0,-1.38071 -1.1193,-2.5 -2.5,-2.5 z"
         inkscape:connector-curvature="0"
         style="stroke:#0069ff;stroke-width:2;stroke-linecap:round;stroke-linejoin:round" />
      <path
         id="path1418"
         d="m 2.5,11.25 h 35"
         inkscape:connector-curvature="0"
         style="stroke:#0069ff;stroke-width:2;stroke-linecap:round;stroke-linejoin:round" />
      <path
         id="path1420"
         d="m 15,11.25 v 25"
         inkscape:connector-curvature="0"
         style="stroke:#0069ff;stroke-width:2;stroke-linecap:round;stroke-linejoin:round" />
      <path
         id="path1422"
         d="M 15,23.75 H 37.5"
         inkscape:connector-curvature="0"
         style="stroke:#0069ff;stroke-width:2;stroke-linecap:round;stroke-linejoin:round" />
    </g>
    <g
       style="fill:none"
       id="g1467"
       transform="matrix(0.285816,0,0,0.285816,-0.42465326,201.31625)">
      <path
         id="path1438"
         d="M 2.5,11.25 H 20"
         inkscape:connector-curvature="0"
         style="stroke:#0069ff;stroke-width:2;stroke-linecap:round;stroke-linejoin:round" />
      <path
         id="path1440"
         d="m 12.5,3.75 v 7.5"
         inkscape:connector-curvature="0"
         style="stroke:#0069ff;stroke-width:2;stroke-linecap:round;stroke-linejoin:round" />
      <path
         id="path1442"
         d="M 20,21.25 V 3.75 H 5 C 4.33696,3.75 3.70107,4.01339 3.23223,4.48223 2.76339,4.95107 2.5,5.58696 2.5,6.25 v 27.5 c 0,0.663 0.26339,1.2989 0.73223,1.7678 C 3.70107,35.9866 4.33696,36.25 5,36.25 h 30 c 0.663,0 1.2989,-0.2634 1.7678,-0.7322 C 37.2366,35.0489 37.5,34.413 37.5,33.75 v -12.5 z"
         inkscape:connector-curvature="0"
         style="stroke:#0069ff;stroke-width:2;stroke-linecap:round;stroke-linejoin:round" />
      <path
         id="path1444"
         d="M 20,8.75 H 37.5"
         inkscape:connector-curvature="0"
         style="stroke:#0069ff;stroke-width:2;stroke-linecap:round;stroke-linejoin:round" />
      <path
         id="path1446"
         d="M 20,15 H 37.5"
         inkscape:connector-curvature="0"
         style="stroke:#0069ff;stroke-width:2;stroke-linecap:round;stroke-linejoin:round" />
      <path
         id="path1448"
         d="m 26.25,3.75 v 17.5"
         inkscape:connector-curvature="0"
         style="stroke:#0069ff;stroke-width:2;stroke-linecap:round;stroke-linejoin:round" />
      <path
         id="path1450"
         d="m 33.75,3.75 v 17.5"
         inkscape:connector-curvature="0"
         style="stroke:#0069ff;stroke-width:2;stroke-linecap:round;stroke-linejoin:round" />
    </g>
    <g
       style="fill:none"
       id="g1504"
       transform="matrix(0.26755742,0,0,0.26755742,-0.0596796,191.11458)">
      <path
         id="path1469"
         d="m 11.25,23.125 c -0.1236,0 -0.2445,0.0367 -0.3472,0.1053 -0.1028,0.0687 -0.1829,0.1663 -0.2302,0.2805 -0.0473,0.1142 -0.0597,0.2399 -0.0356,0.3611 0.0241,0.1213 0.0837,0.2326 0.1711,0.32 0.0874,0.0875 0.1987,0.147 0.32,0.1711 0.1212,0.0241 0.2469,0.0117 0.3611,-0.0356 0.1142,-0.0473 0.2118,-0.1274 0.2805,-0.2302 0.0686,-0.1027 0.1053,-0.2236 0.1053,-0.3472 0,-0.1658 -0.0658,-0.3247 -0.1831,-0.4419 C 11.5747,23.1908 11.4158,23.125 11.25,23.125 Z"
         inkscape:connector-curvature="0"
         style="stroke:#0069ff;stroke-width:2;stroke-linecap:round;stroke-linejoin:round" />
      <path
         id="path1471"
         d="m 20,23.75 h 2.5"
         inkscape:connector-curvature="0"
         style="stroke:#0069ff;stroke-width:2;stroke-linecap:round;stroke-linejoin:round" />
      <path
         id="path1473"
         d="M 27.5,23.75 H 30"
         inkscape:connector-curvature="0"
         style="stroke:#0069ff;stroke-width:2;stroke-linecap:round;stroke-linejoin:round" />
      <path
         id="path1475"
         d="m 11.25,33.125 c -0.1236,0 -0.2445,0.0367 -0.3472,0.1053 -0.1028,0.0687 -0.1829,0.1663 -0.2302,0.2805 -0.0473,0.1142 -0.0597,0.2399 -0.0356,0.3611 0.0241,0.1213 0.0837,0.2326 0.1711,0.32 0.0874,0.0875 0.1987,0.147 0.32,0.1711 0.1212,0.0241 0.2469,0.0117 0.3611,-0.0356 0.1142,-0.0473 0.2118,-0.1274 0.2805,-0.2302 0.0686,-0.1027 0.1053,-0.2236 0.1053,-0.3472 0,-0.1658 -0.0658,-0.3247 -0.1831,-0.4419 C 11.5747,33.1908 11.4158,33.125 11.25,33.125 Z"
         inkscape:connector-curvature="0"
         style="stroke:#0069ff;stroke-width:2;stroke-linecap:round;stroke-linejoin:round" />
      <path
         id="path1477"
         d="m 20,33.75 h 2.5"
         inkscape:connector-curvature="0"
         style="stroke:#0069ff;stroke-width:2;stroke-linecap:round;stroke-linejoin:round" />
      <path
         id="path1479"
         d="M 27.5,33.75 H 30"
         inkscape:connector-curvature="0"
         style="stroke:#0069ff;stroke-width:2;stroke-linecap:round;stroke-linejoin:round" />
      <path
         id="path1481"
         d="m 35,23.75 c 0,1.3261 -0.5268,2.5979 -1.4645,3.5355 C 32.5979,28.2232 31.3261,28.75 30,28.75 H 10 C 8.67392,28.75 7.40215,28.2232 6.46447,27.2855 5.52678,26.3479 5,25.0761 5,23.75 5,22.4239 5.52678,21.1521 6.46447,20.2145 7.40215,19.2768 8.67392,18.75 10,18.75 h 20 c 1.3261,0 2.5979,0.5268 3.5355,1.4645 C 34.4732,21.1521 35,22.4239 35,23.75 Z"
         inkscape:connector-curvature="0"
         style="stroke:#0069ff;stroke-width:2;stroke-linecap:round;stroke-linejoin:round" />
      <path
         id="path1483"
         d="m 35,33.75 c 0,1.3261 -0.5268,2.5979 -1.4645,3.5355 C 32.5979,38.2232 31.3261,38.75 30,38.75 H 10 C 8.67392,38.75 7.40215,38.2232 6.46447,37.2855 5.52678,36.3479 5,35.0761 5,33.75 5,32.4239 5.52678,31.1521 6.46447,30.2145 7.40215,29.2768 8.67392,28.75 10,28.75 h 20 c 1.3261,0 2.5979,0.5268 3.5355,1.4645 C 34.4732,31.1521 35,32.4239 35,33.75 Z"
         inkscape:connector-curvature="0"
         style="stroke:#0069ff;stroke-width:2;stroke-linecap:round;stroke-linejoin:round" />
      <path
         id="path1485"
         d="m 38.5333,20 c 0.2811,-1.1934 0.2888,-2.4348 0.0226,-3.6316 C 38.2896,15.1716 37.7563,14.0505 36.9958,13.0888 36.2353,12.1272 35.2673,11.3499 34.1641,10.815 33.0609,10.2801 31.851,10.0015 30.625,10 28.9784,9.99952 27.3709,10.5026 26.0183,11.4417 25.7002,9.70523 25.0178,8.05589 24.0161,6.60222 23.0145,5.14856 21.7163,3.92354 20.207,3.00782 18.6978,2.0921 17.0117,1.50646 15.2597,1.28944 13.5078,1.07242 11.7297,1.22896 10.0426,1.74873 8.35553,2.26851 6.79767,3.13975 5.47161,4.30508 4.14555,5.47041 3.08136,6.9034 2.34911,8.50971 1.61685,10.116 1.23315,11.8592 1.22325,13.6245 c -0.0099,1.7654 0.35423,3.5127 1.06843,5.1272"
         inkscape:connector-curvature="0"
         style="stroke:#0069ff;stroke-width:2;stroke-linecap:round;stroke-linejoin:round" />
    </g>
  </g>
  <style
     id="style883">.st0{fill:none;stroke:#0065ff;stroke-width:2}</style>
</svg>
