<?xml version="1.0" encoding="UTF-8" standalone="no"?>
<!-- Created with Inkscape (http://www.inkscape.org/) -->

<svg
   xmlns:dc="http://purl.org/dc/elements/1.1/"
   xmlns:cc="http://creativecommons.org/ns#"
   xmlns:rdf="http://www.w3.org/1999/02/22-rdf-syntax-ns#"
   xmlns:svg="http://www.w3.org/2000/svg"
   xmlns="http://www.w3.org/2000/svg"
   xmlns:sodipodi="http://sodipodi.sourceforge.net/DTD/sodipodi-0.dtd"
   xmlns:inkscape="http://www.inkscape.org/namespaces/inkscape"
   width="16"
   height="80"
   viewBox="0 0 4.2333332 21.166668"
   version="1.1"
   id="svg8"
   inkscape:version="0.92.5 (2060ec1f9f, 2020-04-08)"
   sodipodi:docname="drawing4.svg">
  <defs
     id="defs2">
    <clipPath
       id="clip0">
      <rect
         id="rect96"
         height="16"
         width="16"
         x="0"
         y="0"
         style="fill:#ffffff" />
    </clipPath>
    <clipPath
       id="clip0-3">
      <rect
         id="rect129"
         height="16"
         width="16"
         x="0"
         y="0"
         style="fill:#ffffff" />
    </clipPath>
    <clipPath
       id="clip0-6">
      <rect
         id="rect160"
         height="16"
         width="16"
         x="0"
         y="0"
         style="fill:#ffffff" />
    </clipPath>
  </defs>
  <sodipodi:namedview
     id="base"
     pagecolor="#ffffff"
     bordercolor="#666666"
     borderopacity="1.0"
     inkscape:pageopacity="0.0"
     inkscape:pageshadow="2"
     inkscape:zoom="5.6"
     inkscape:cx="-32.015513"
     inkscape:cy="57.977518"
     inkscape:document-units="mm"
     inkscape:current-layer="layer1"
     showgrid="false"
     units="px"
     inkscape:window-width="1848"
     inkscape:window-height="1016"
     inkscape:window-x="72"
     inkscape:window-y="27"
     inkscape:window-maximized="1" />
  <metadata
     id="metadata5">
    <rdf:RDF>
      <cc:Work
         rdf:about="">
        <dc:format>image/svg+xml</dc:format>
        <dc:type
           rdf:resource="http://purl.org/dc/dcmitype/StillImage" />
        <dc:title></dc:title>
      </cc:Work>
    </rdf:RDF>
  </metadata>
  <g
     inkscape:label="Layer 1"
     inkscape:groupmode="layer"
     id="layer1"
     transform="translate(0,-275.83331)">
    <g
       style="fill:none"
       id="g27"
       transform="matrix(0.26458333,0,0,0.26458333,1.3229166e-5,288.53331)">
      <path
         id="path10"
         d="m 8,6.50067 c 4.1421,0 7.5,-1.34314 7.5,-3 0,-1.65685 -3.3579,-2.999999 -7.5,-2.999999 -4.14214,0 -7.5,1.343149 -7.5,2.999999 0,1.65686 3.35786,3 7.5,3 z"
         inkscape:connector-curvature="0"
         style="stroke:#0069ff;stroke-linecap:round;stroke-linejoin:round" />
      <path
         id="path12"
         d="M 0.5,3.50067 V 8 c 0,1.65667 3.358,3 7.5,3 4.142,0 7.5,-1.34266 7.5,-3 V 3.50067"
         inkscape:connector-curvature="0"
         style="stroke:#0069ff;stroke-linecap:round;stroke-linejoin:round" />
      <path
         id="path14"
         d="m 0.5,8 v 4.5 c 0,1.6567 3.358,3 7.5,3 4.142,0 7.5,-1.3433 7.5,-3 V 8"
         inkscape:connector-curvature="0"
         style="stroke:#0069ff;stroke-linecap:round;stroke-linejoin:round" />
    </g>
    <g
       style="fill:none"
       id="g82"
       transform="matrix(0.26458333,0,0,0.26458333,0.00188416,292.76476)">
      <path
         id="path29"
         d="m 12.5,2.5 h -9 c -0.55228,0 -1,0.44772 -1,1 v 9 c 0,0.5523 0.44772,1 1,1 h 9 c 0.5523,0 1,-0.4477 1,-1 v -9 c 0,-0.55228 -0.4477,-1 -1,-1 z"
         inkscape:connector-curvature="0"
         style="stroke:#0069ff;stroke-linecap:round;stroke-linejoin:round" />
      <path
         id="path31"
         d="M 8,2.5 V 1"
         inkscape:connector-curvature="0"
         style="stroke:#0069ff;stroke-linecap:round;stroke-linejoin:round" />
      <path
         id="path33"
         d="M 4.5,2.5 V 1"
         inkscape:connector-curvature="0"
         style="stroke:#0069ff;stroke-linecap:round;stroke-linejoin:round" />
      <path
         id="path35"
         d="M 11.5,2.5 V 1"
         inkscape:connector-curvature="0"
         style="stroke:#0069ff;stroke-linecap:round;stroke-linejoin:round" />
      <path
         id="path37"
         d="M 8,15 V 13.5"
         inkscape:connector-curvature="0"
         style="stroke:#0069ff;stroke-linecap:round;stroke-linejoin:round" />
      <path
         id="path39"
         d="M 4.5,15 V 13.5"
         inkscape:connector-curvature="0"
         style="stroke:#0069ff;stroke-linecap:round;stroke-linejoin:round" />
      <path
         id="path41"
         d="M 11.5,15 V 13.5"
         inkscape:connector-curvature="0"
         style="stroke:#0069ff;stroke-linecap:round;stroke-linejoin:round" />
      <path
         id="path43"
         d="M 15,8 H 13.5"
         inkscape:connector-curvature="0"
         style="stroke:#0069ff;stroke-linecap:round;stroke-linejoin:round" />
      <path
         id="path45"
         d="M 15,11.5 H 13.5"
         inkscape:connector-curvature="0"
         style="stroke:#0069ff;stroke-linecap:round;stroke-linejoin:round" />
      <path
         id="path47"
         d="M 15,4.5 H 13.5"
         inkscape:connector-curvature="0"
         style="stroke:#0069ff;stroke-linecap:round;stroke-linejoin:round" />
      <path
         id="path49"
         d="M 2.5,8 H 1"
         inkscape:connector-curvature="0"
         style="stroke:#0069ff;stroke-linecap:round;stroke-linejoin:round" />
      <path
         id="path51"
         d="M 2.5,11.5 H 1"
         inkscape:connector-curvature="0"
         style="stroke:#0069ff;stroke-linecap:round;stroke-linejoin:round" />
      <path
         id="path53"
         d="M 2.5,4.5 H 1"
         inkscape:connector-curvature="0"
         style="stroke:#0069ff;stroke-linecap:round;stroke-linejoin:round" />
      <path
         id="path55"
         d="m 10.5,4.5 h -5 c -0.55228,0 -1,0.44772 -1,1 v 5 c 0,0.5523 0.44772,1 1,1 h 5 c 0.5523,0 1,-0.4477 1,-1 v -5 c 0,-0.55228 -0.4477,-1 -1,-1 z"
         inkscape:connector-curvature="0"
         style="stroke:#0069ff;stroke-linecap:round;stroke-linejoin:round" />
      <path
         id="path57"
         d="M 9.5,9.5 H 8"
         inkscape:connector-curvature="0"
         style="stroke:#0069ff;stroke-linecap:round;stroke-linejoin:round" />
    </g>
    <g
       style="fill:none"
       id="g115"
       transform="matrix(0.26458333,0,0,0.26458333,0,275.83365)">
      <g
         id="g94"
         clip-path="url(#clip0)">
        <path
           id="path84"
           d="m 4.5,10.4987 h -3 c -0.552285,0 -1,0.4477 -1,1 v 3 c 0,0.5523 0.447715,1 1,1 h 3 c 0.55228,0 1,-0.4477 1,-1 v -3 c 0,-0.5523 -0.44772,-1 -1,-1 z"
           inkscape:connector-curvature="0"
           style="stroke:#0069ff;stroke-linecap:round;stroke-linejoin:round" />
        <path
           id="path86"
           d="m 9.5,0.498672 h -3 c -0.55228,0 -1,0.447716 -1,0.999998 v 3 c 0,0.55229 0.44772,1 1,1 h 3 c 0.5523,0 1,-0.44771 1,-1 v -3 c 0,-0.552282 -0.4477,-0.999998 -1,-0.999998 z"
           inkscape:connector-curvature="0"
           style="stroke:#0069ff;stroke-linecap:round;stroke-linejoin:round" />
        <path
           id="path88"
           d="m 14.5,10.4987 h -3 c -0.5523,0 -1,0.4477 -1,1 v 3 c 0,0.5523 0.4477,1 1,1 h 3 c 0.5523,0 1,-0.4477 1,-1 v -3 c 0,-0.5523 -0.4477,-1 -1,-1 z"
           inkscape:connector-curvature="0"
           style="stroke:#0069ff;stroke-linecap:round;stroke-linejoin:round" />
        <path
           id="path90"
           d="M 3,10.4987 V 9.49867 C 3,9.23346 3.10536,8.9791 3.29289,8.79157 3.48043,8.60403 3.73478,8.49867 4,8.49867 h 8 c 0.2652,0 0.5196,0.10536 0.7071,0.2929 C 12.8946,8.9791 13,9.23346 13,9.49867 v 1.00003"
           inkscape:connector-curvature="0"
           style="stroke:#0069ff;stroke-linecap:round;stroke-linejoin:round" />
        <path
           id="path92"
           d="m 8,5.49867 v 3"
           inkscape:connector-curvature="0"
           style="stroke:#0069ff;stroke-linecap:round;stroke-linejoin:round" />
      </g>
    </g>
    <g
       style="fill:none"
       id="g148"
       transform="matrix(0.26458333,0,0,0.26458333,0,280.06664)">
      <g
         id="g127"
         clip-path="url(#clip0-3)">
        <path
           id="path117"
           d="m 12.25,11.75 c -0.0494,0 -0.0978,0.0147 -0.1389,0.0421 -0.0411,0.0275 -0.0731,0.0665 -0.0921,0.1122 -0.0189,0.0457 -0.0238,0.096 -0.0142,0.1445 0.0097,0.0485 0.0335,0.093 0.0684,0.128 0.035,0.0349 0.0795,0.0587 0.128,0.0684 0.0485,0.0096 0.0988,0.0047 0.1445,-0.0142 0.0457,-0.019 0.0847,-0.051 0.1122,-0.0921 C 12.4853,12.0978 12.5,12.0494 12.5,12 12.5,11.9337 12.4737,11.8701 12.4268,11.8232 12.3799,11.7763 12.3163,11.75 12.25,11.75 Z"
           inkscape:connector-curvature="0"
           style="stroke:#0069ff;stroke-linecap:round;stroke-linejoin:round" />
        <path
           id="path119"
           d="m 10,11.75 c -0.04945,0 -0.09778,0.0147 -0.13889,0.0421 C 9.82,11.8196 9.78795,11.8586 9.76903,11.9043 9.75011,11.95 9.74516,12.0003 9.7548,12.0488 c 0.00965,0.0485 0.03346,0.093 0.06842,0.128 0.03497,0.0349 0.07951,0.0587 0.12801,0.0684 0.04849,0.0096 0.09877,0.0047 0.14447,-0.0142 0.0457,-0.019 0.0847,-0.051 0.1122,-0.0921 C 10.2353,12.0978 10.25,12.0494 10.25,12 10.25,11.9337 10.2237,11.8701 10.1768,11.8232 10.1299,11.7763 10.0663,11.75 10,11.75 Z"
           inkscape:connector-curvature="0"
           style="stroke:#0069ff;stroke-linecap:round;stroke-linejoin:round" />
        <path
           id="path121"
           d="m 15.5,12 c 0,0.7956 -0.3161,1.5587 -0.8787,2.1213 C 14.0587,14.6839 13.2956,15 12.5,15 h -9 C 2.70435,15 1.94129,14.6839 1.37868,14.1213 0.81607,13.5587 0.5,12.7956 0.5,12 0.5,11.2044 0.81607,10.4413 1.37868,9.87868 1.94129,9.31607 2.70435,9 3.5,9 h 9 c 0.7956,0 1.5587,0.31607 2.1213,0.87868 C 15.1839,10.4413 15.5,11.2044 15.5,12 Z"
           inkscape:connector-curvature="0"
           style="stroke:#0069ff;stroke-linecap:round;stroke-linejoin:round" />
        <path
           id="path123"
           d="M 15.4207,11.3153 13.362,2.54333 C 13.259,2.10429 13.0107,1.71294 12.6574,1.43278 12.304,1.15262 11.8663,1.00011 11.4153,1 H 4.58535 C 4.13428,0.999962 3.69644,1.1524 3.34293,1.43257 2.98943,1.71274 2.74101,2.10418 2.63801,2.54333 L 0.579346,11.3153"
           inkscape:connector-curvature="0"
           style="stroke:#0069ff;stroke-linecap:round;stroke-linejoin:round" />
        <path
           id="path125"
           d="M 3.5,12 H 6"
           inkscape:connector-curvature="0"
           style="stroke:#0069ff;stroke-linecap:round;stroke-linejoin:round" />
      </g>
    </g>
    <g
       style="fill:none"
       id="g178"
       transform="matrix(0.26458333,0,0,0.26458333,-0.00100189,284.29998)">
      <g
         id="g158"
         clip-path="url(#clip0-6)">
        <path
           id="path150"
           d="m 3.98339,8.10067 c 0.06537,0.07222 0.14515,0.12995 0.2342,0.16945 0.08904,0.03951 0.18538,0.05992 0.2828,0.05992 0.09741,0 0.19375,-0.02041 0.2828,-0.05992 0.08904,-0.0395 0.16882,-0.09723 0.2342,-0.16945 L 5.35072,7.73 C 5.44715,7.62328 5.57424,7.54902 5.71456,7.51742 5.85487,7.48582 6.00153,7.49842 6.1344,7.5535 6.26727,7.60857 6.37983,7.70342 6.45664,7.82502 6.53345,7.94663 6.57074,8.08903 6.56339,8.23267 l -0.026,0.498 C 6.5322,8.82834 6.54762,8.926 6.58264,9.01732 6.61765,9.10864 6.67149,9.19158 6.74065,9.26074 6.80981,9.3299 6.89274,9.38373 6.98407,9.41875 7.07539,9.45377 7.17305,9.46919 7.27072,9.464 l 0.498,-0.02533 C 7.91236,9.43132 8.05476,9.46861 8.17636,9.54541 8.29797,9.62222 8.39282,9.73479 8.44789,9.86766 8.50297,10.0005 8.51557,10.1472 8.48397,10.2875 8.45236,10.4278 8.37811,10.5549 8.27139,10.6513 L 7.90072,10.9847 C 7.8285,11.05 7.77077,11.1298 7.73126,11.2189 c -0.0395,0.089 -0.05991,0.1854 -0.05991,0.2828 0,0.0974 0.02041,0.1937 0.05991,0.2828 0.03951,0.089 0.09724,0.1688 0.16946,0.2342 l 0.37067,0.3333 c 0.10672,0.0964 0.18097,0.2235 0.21258,0.3638 0.0316,0.1404 0.019,0.287 -0.03608,0.4199 -0.05507,0.1328 -0.14992,0.2454 -0.27153,0.3222 -0.1216,0.0768 -0.264,0.1141 -0.40764,0.1068 l -0.498,-0.026 c -0.09767,-0.0052 -0.19533,0.0102 -0.28665,0.0452 -0.09133,0.035 -0.17426,0.0889 -0.24342,0.158 -0.06916,0.0692 -0.123,0.1521 -0.15801,0.2434 -0.03502,0.0914 -0.05044,0.189 -0.04525,0.2867 l 0.026,0.498 C 6.57074,14.9136 6.53345,15.056 6.45664,15.1776 6.37983,15.2992 6.26727,15.3941 6.1344,15.4492 6.00153,15.5042 5.85487,15.5168 5.71456,15.4852 5.57424,15.4536 5.44715,15.3794 5.35072,15.2727 L 5.01739,14.902 C 4.95201,14.8298 4.87223,14.7721 4.78319,14.7325 4.69414,14.693 4.5978,14.6726 4.50039,14.6726 c -0.09742,0 -0.19376,0.0204 -0.2828,0.0599 -0.08905,0.0396 -0.16883,0.0973 -0.2342,0.1695 L 3.65005,15.2727 C 3.55363,15.3794 3.42653,15.4536 3.28622,15.4852 3.1459,15.5168 2.99924,15.5042 2.86638,15.4492 2.73351,15.3941 2.62094,15.2992 2.54414,15.1776 2.46733,15.056 2.43004,14.9136 2.43739,14.77 L 2.46272,14.272 C 2.46791,14.1743 2.45249,14.0767 2.41747,13.9853 2.38245,13.894 2.32862,13.8111 2.25946,13.7419 2.1903,13.6728 2.10737,13.6189 2.01604,13.5839 1.92472,13.5489 1.82706,13.5335 1.72939,13.5387 l -0.498,0.026 C 1.08815,13.571 0.946447,13.5329 0.825623,13.4557 0.704799,13.3786 0.610736,13.266 0.556269,13.1333 0.501802,13.0007 0.489584,12.8545 0.521283,12.7147 0.552981,12.5748 0.627052,12.4482 0.733388,12.352 L 1.10405,12.0187 C 1.17628,11.9533 1.234,11.8735 1.27351,11.7845 1.31302,11.6954 1.33343,11.5991 1.33343,11.5017 1.33343,11.4043 1.31302,11.3079 1.27351,11.2189 1.234,11.1298 1.17628,11.05 1.10405,10.9847 L 0.733388,10.6513 C 0.626669,10.5549 0.552412,10.4278 0.520809,10.2875 0.489207,10.1472 0.501808,10.0005 0.556883,9.86766 0.611959,9.73479 0.706808,9.62222 0.828412,9.54541 0.950016,9.46861 1.09241,9.43132 1.23605,9.43867 L 1.73405,9.464 C 1.83172,9.46919 1.92939,9.45377 2.02071,9.41875 2.11203,9.38373 2.19497,9.3299 2.26412,9.26074 2.33328,9.19158 2.38712,9.10864 2.42214,9.01732 2.45716,8.926 2.47257,8.82834 2.46739,8.73067 L 2.44205,8.23267 C 2.43675,8.09049 2.47511,7.95009 2.55197,7.83036 2.62882,7.71062 2.7405,7.61729 2.87198,7.56291 3.00346,7.50854 3.14843,7.49572 3.28741,7.52619 3.42639,7.55665 3.55271,7.62894 3.64939,7.73333 Z"
           inkscape:connector-curvature="0"
           style="stroke:#0069ff;stroke-linecap:round;stroke-linejoin:round" />
        <path
           id="path152"
           d="m 4.50061,12.5007 c 0.55228,0 1,-0.4477 1,-1 0,-0.5523 -0.44772,-1 -1,-1 -0.55228,0 -1,0.4477 -1,1 0,0.5523 0.44772,1 1,1 z"
           inkscape:connector-curvature="0"
           style="stroke:#0069ff;stroke-linecap:round;stroke-linejoin:round" />
        <path
           id="path154"
           d="m 10.9834,1.10067 c 0.0654,0.07222 0.1451,0.12995 0.2342,0.16945 0.089,0.03951 0.1854,0.05992 0.2828,0.05992 0.0974,0 0.1937,-0.02041 0.2828,-0.05992 0.089,-0.0395 0.1688,-0.09723 0.2342,-0.16945 L 12.3507,0.73 c 0.0964,-0.106718 0.2235,-0.180976 0.3639,-0.212578 0.1403,-0.031603 0.2869,-0.019002 0.4198,0.036074 0.1329,0.055075 0.2454,0.149925 0.3222,0.271529 0.0769,0.121603 0.1141,0.263995 0.1068,0.407645 l -0.026,0.498 c -0.0052,0.09766 0.0102,0.19533 0.0452,0.28665 0.0351,0.09132 0.0889,0.17426 0.1581,0.24342 0.0691,0.06916 0.152,0.12299 0.2434,0.15801 0.0913,0.03502 0.189,0.05044 0.2866,0.04525 l 0.498,-0.02533 c 0.1437,-0.00735 0.2861,0.02994 0.4077,0.10674 0.1216,0.07681 0.2164,0.18938 0.2715,0.32225 0.0551,0.13286 0.0677,0.27952 0.0361,0.41984 -0.0316,0.14031 -0.1059,0.26741 -0.2126,0.36383 l -0.3707,0.33334 c -0.0722,0.06537 -0.1299,0.14515 -0.1694,0.2342 -0.0395,0.08904 -0.06,0.18538 -0.06,0.2828 0,0.09741 0.0205,0.19375 0.06,0.2828 0.0395,0.08904 0.0972,0.16882 0.1694,0.2342 L 15.2714,5.352 c 0.1067,0.09643 0.181,0.22352 0.2126,0.36384 0.0316,0.14031 0.019,0.28697 -0.0361,0.41984 -0.0551,0.13287 -0.1499,0.24543 -0.2715,0.32224 -0.1216,0.07681 -0.264,0.1141 -0.4077,0.10675 l -0.498,-0.026 C 14.1731,6.53348 14.0754,6.5489 13.9841,6.58392 13.8927,6.61893 13.8098,6.67277 13.7407,6.74193 13.6715,6.81109 13.6177,6.89402 13.5826,6.98534 13.5476,7.07667 13.5322,7.17433 13.5374,7.272 l 0.026,0.498 C 13.5707,7.91364 13.5335,8.05604 13.4566,8.17764 13.3798,8.29925 13.2673,8.3941 13.1344,8.44917 13.0015,8.50425 12.8549,8.51685 12.7146,8.48525 12.5742,8.45364 12.4471,8.37939 12.3507,8.27267 L 12.0174,7.902 C 11.952,7.82978 11.8722,7.77205 11.7832,7.73254 11.6941,7.69304 11.5978,7.67262 11.5004,7.67262 c -0.0974,0 -0.1938,0.02042 -0.2828,0.05992 C 11.1285,7.77205 11.0488,7.82978 10.9834,7.902 L 10.6501,8.27267 C 10.5536,8.37939 10.4265,8.45364 10.2862,8.48525 10.1459,8.51685 9.99924,8.50425 9.86638,8.44917 9.73351,8.3941 9.62094,8.29925 9.54414,8.17764 9.46733,8.05604 9.43004,7.91364 9.43739,7.77 L 9.46272,7.272 C 9.46791,7.17433 9.45249,7.07667 9.41747,6.98534 9.38246,6.89402 9.32862,6.81109 9.25946,6.74193 9.1903,6.67277 9.10737,6.61893 9.01604,6.58392 8.92472,6.5489 8.82706,6.53348 8.72939,6.53867 l -0.498,0.026 C 8.08815,6.57098 7.94645,6.53294 7.82562,6.45575 7.7048,6.37855 7.61074,6.26596 7.55627,6.13333 7.5018,6.00069 7.48958,5.85449 7.52128,5.71466 7.55298,5.57482 7.62705,5.44818 7.73339,5.352 L 8.10405,5.01867 C 8.17628,4.95329 8.23401,4.87351 8.27351,4.78447 8.31302,4.69542 8.33343,4.59908 8.33343,4.50167 8.33343,4.40425 8.31302,4.30791 8.27351,4.21887 8.23401,4.12982 8.17628,4.05004 8.10405,3.98467 L 7.73339,3.65133 C 7.62667,3.55491 7.55241,3.42781 7.52081,3.2875 7.48921,3.14718 7.50181,3.00052 7.55688,2.86766 7.61196,2.73479 7.70681,2.62222 7.82841,2.54541 7.95002,2.46861 8.09241,2.43132 8.23605,2.43867 L 8.73405,2.464 C 8.83172,2.46919 8.92939,2.45377 9.02071,2.41875 9.11203,2.38373 9.19497,2.3299 9.26413,2.26074 9.33328,2.19158 9.38712,2.10864 9.42214,2.01732 9.45716,1.926 9.47258,1.82833 9.46739,1.73067 L 9.44205,1.23267 C 9.43675,1.09049 9.47511,0.95009 9.55197,0.830356 9.62882,0.710622 9.7405,0.617291 9.87198,0.562914 10.0035,0.508536 10.1484,0.495719 10.2874,0.526186 c 0.139,0.030466 0.2653,0.102756 0.362,0.207148 z"
           inkscape:connector-curvature="0"
           style="stroke:#0069ff;stroke-linecap:round;stroke-linejoin:round" />
        <path
           id="path156"
           d="m 11.5006,5.50067 c 0.5523,0 1,-0.44771 1,-1 0,-0.55228 -0.4477,-1 -1,-1 -0.5523,0 -1,0.44772 -1,1 0,0.55229 0.4477,1 1,1 z"
           inkscape:connector-curvature="0"
           style="stroke:#0069ff;stroke-linecap:round;stroke-linejoin:round" />
      </g>
    </g>
  </g>
</svg>
